# xmcd
#
# Track frame offsets: 
#        183
#        18100
#        38940
#        57843
#        76600
#        90863
#        107383
#        126538
#        143855
#        163558
#
# Disc length: 2404 seconds
#
# Revision: 2
# Processed by: cddbd v1.4PL0 Copyright (c) Steve Scherf et al.
# Submitted via: ExactAudioCopy v0.90b4
#
DISCID=6d09620a
DTITLE=Kenny Rogers - Eyes That See In The Dark
DYEAR=1983
DGENRE=Country
TTITLE0=This Woman
TTITLE1=You And I
TTITLE2=Buried Treasure
TTITLE3=Islands In The Stream
TTITLE4=Living With You
TTITLE5=Evening Star
TTITLE6=Hold Me
TTITLE7=Midsummer Nights
TTITLE8=I Will Always Love You
TTITLE9=Eyes That See In The Dark
EXTD=
EXTT0=
EXTT1=
EXTT2=
EXTT3=
EXTT4=
EXTT5=
EXTT6=
EXTT7=
EXTT8=
EXTT9=
PLAYORDER=
